 <svg version="1.0" xmlns="http://www.w3.org/2000/svg"  width="300.000000pt" height="134.000000pt" viewBox="0 0 300.000000 134.000000"  preserveAspectRatio="xMidYMid meet">  <g transform="translate(0.000000,134.000000) scale(0.100000,-0.100000)" fill="#000000" stroke="none"> <path d="M1240 961 l0 -79 42 2 c36 1 43 5 51 29 13 40 -15 81 -49 73 -21 -6 -24 -3 -24 24 0 16 -4 30 -10 30 -6 0 -10 -33 -10 -79z m80 -25 c0 -33 -15 -49 -39 -41 -27 8 -29 59 -4 74 22 12 43 -4 43 -33z"/> <path d="M1754 955 c0 -49 1 -71 3 -48 2 23 2 64 0 90 -2 26 -3 8 -3 -42z"/> <path d="M2120 1010 c0 -27 -2 -29 -29 -24 -23 5 -32 2 -40 -14 -27 -50 -3 -99 44 -90 13 3 26 0 29 -6 2 -6 5 28 5 77 1 48 -1 87 -4 87 -3 0 -5 -13 -5 -30z m0 -74 c0 -28 -24 -51 -45 -42 -18 7 -21 72 -2 79 21 8 47 -13 47 -37z"/> <path d="M998 955 c-2 -43 0 -79 5 -82 4 -2 7 14 7 37 0 34 3 41 18 38 9 -2 26 -21 36 -43 11 -21 21 -34 23 -28 3 7 -3 25 -12 42 -13 25 -13 34 -3 51 18 28 0 54 -40 58 l-30 3 -4 -76z m65 41 c7 -17 -11 -36 -35 -36 -13 0 -18 8 -18 25 0 20 5 25 24 25 13 0 26 -6 29 -14z"/> <path d="M1634 1009 c-22 -25 -25 -89 -5 -113 18 -21 82 -18 89 4 5 13 3 13 -11 1 -43 -35 -91 19 -71 78 8 22 16 26 47 26 39 0 48 9 21 19 -29 11 -51 6 -70 -15z"/> <path d="M1494 1005 c3 -10 -1 -15 -12 -16 -10 0 -12 -3 -4 -6 6 -2 12 -20 12 -38 0 -48 9 -65 34 -64 16 1 17 2 4 6 -14 3 -18 15 -18 48 0 35 3 43 15 39 8 -4 15 -1 15 5 0 6 -7 11 -15 11 -8 0 -15 7 -15 15 0 8 -5 15 -11 15 -6 0 -9 -7 -5 -15z"/> <path d="M1127 972 c-33 -36 -13 -92 31 -92 36 0 52 17 52 55 0 17 -5 36 -12 43 -18 18 -53 15 -71 -6z m69 -28 c8 -30 -12 -56 -40 -52 -15 2 -22 12 -24 33 -6 53 51 70 64 19z"/> <path d="M1376 974 c-19 -18 -21 -65 -4 -82 7 -7 24 -12 38 -12 33 0 50 17 50 51 0 32 -23 59 -50 59 -10 0 -26 -7 -34 -16z m62 -43 c-3 -31 -6 -36 -28 -36 -20 0 -26 6 -28 30 -4 32 20 58 44 48 10 -4 14 -17 12 -42z"/> <path d="M1804 964 c-24 -36 -9 -78 29 -82 16 -2 35 2 43 9 17 14 19 70 2 87 -20 20 -56 14 -74 -14z m72 -20 c8 -30 -12 -56 -40 -52 -15 2 -22 12 -24 33 -6 53 51 70 64 19z"/> <path d="M1920 946 c0 -51 14 -66 58 -63 32 2 32 3 32 55 0 30 -4 52 -11 52 -6 0 -9 -16 -8 -40 3 -43 -11 -66 -35 -57 -11 5 -16 20 -16 52 0 25 -4 45 -10 45 -5 0 -10 -20 -10 -44z"/> <path d="M1140 642 c0 -26 -3 -28 -30 -24 -24 3 -32 0 -42 -22 -8 -19 -9 -35 -2 -54 8 -23 16 -27 49 -28 l40 -2 0 79 c0 44 -3 79 -7 79 -5 0 -8 -13 -8 -28z m-12 -44 c28 -28 2 -88 -33 -74 -15 5 -22 66 -8 79 10 11 28 8 41 -5z"/> <path d="M1504 590 c1 -44 4 -80 9 -80 4 0 7 36 7 80 0 44 -4 80 -8 80 -5 0 -8 -36 -8 -80z"/> <path d="M1556 661 c-4 -5 -2 -12 3 -15 5 -4 12 -2 15 3 4 5 2 12 -3 15 -5 4 -12 2 -15 -3z"/> <path d="M711 585 c0 -41 4 -75 10 -75 5 0 9 15 9 34 0 32 3 35 33 39 l32 4 -32 1 c-29 2 -33 5 -33 31 0 26 4 30 33 34 28 3 27 4 -10 5 l-42 2 0 -75z"/> <path d="M1250 585 l0 -75 35 0 c46 0 75 29 75 75 0 22 -8 43 -20 55 -12 12 -33 20 -55 20 l-35 0 0 -75z m72 48 c22 -20 24 -76 2 -97 -8 -9 -26 -16 -40 -16 -23 0 -24 3 -24 65 0 60 2 65 22 65 12 0 30 -7 40 -17z"/> <path d="M2085 589 c-15 -38 -24 -73 -21 -77 4 -3 9 4 13 16 8 30 72 32 80 2 3 -11 10 -20 15 -20 10 0 6 16 -24 98 -11 28 -23 52 -28 52 -4 0 -20 -32 -35 -71z m50 9 c6 -25 4 -28 -17 -28 -24 0 -25 2 -14 35 12 37 21 35 31 -7z"/> <path d="M823 594 c-15 -24 -15 -29 -2 -53 11 -19 23 -26 44 -26 21 0 33 7 44 26 13 24 13 29 -2 53 -11 16 -27 26 -42 26 -15 0 -31 -10 -42 -26z m65 4 c30 -30 -2 -93 -36 -71 -21 13 -27 50 -12 69 15 17 32 18 48 2z"/> <path d="M951 606 c-17 -20 -10 -77 10 -89 46 -29 95 26 70 79 -12 28 -61 34 -80 10z m53 -2 c22 -8 22 -70 0 -78 -26 -10 -34 -7 -45 18 -8 17 -8 29 0 45 12 22 20 25 45 15z"/> <path d="M1396 604 c-36 -36 -9 -94 45 -94 16 0 29 5 29 11 0 6 -9 8 -20 4 -22 -7 -50 9 -50 29 0 8 12 11 34 8 39 -5 52 9 36 38 -13 24 -52 26 -74 4z m62 -11 c2 -9 -7 -13 -27 -13 -31 0 -42 14 -18 23 19 8 40 3 45 -10z"/> <path d="M1563 565 c0 -33 2 -45 4 -27 2 18 2 45 0 60 -2 15 -4 0 -4 -33z"/> <path d="M1613 566 c12 -31 26 -56 30 -56 4 0 14 15 21 33 22 53 28 77 18 77 -4 0 -15 -21 -23 -47 l-15 -48 -15 44 c-9 25 -20 46 -26 48 -7 3 -2 -20 10 -51z"/> <path d="M1722 608 c-7 -7 -12 -26 -12 -43 0 -17 5 -36 12 -43 15 -15 64 -16 73 -2 4 7 -2 9 -18 5 -16 -4 -30 -1 -42 12 -18 17 -17 18 23 21 32 2 42 7 42 21 0 23 -19 41 -45 41 -12 0 -26 -5 -33 -12z m58 -13 c11 -13 7 -15 -25 -15 -32 0 -36 2 -25 15 7 8 18 15 25 15 7 0 18 -7 25 -15z"/> <path d="M1830 563 c0 -66 18 -71 22 -5 2 38 6 47 21 46 9 -1 17 2 17 6 0 5 -13 8 -30 8 -29 -1 -30 -2 -30 -55z"/> <path d="M1900 615 c0 -2 9 -27 20 -55 16 -40 18 -56 9 -72 -8 -15 -8 -19 1 -16 6 2 24 36 40 76 16 40 23 71 17 69 -6 -2 -17 -23 -26 -48 l-15 -44 -15 48 c-8 26 -18 47 -23 47 -4 0 -8 -2 -8 -5z"/> <path d="M2200 543 c0 -42 4 -73 10 -73 6 0 10 11 10 24 0 19 4 22 23 19 44 -9 71 42 47 88 -8 14 -20 18 -50 17 l-40 -1 0 -74z m74 51 c10 -26 7 -51 -9 -64 -32 -26 -63 38 -33 68 17 17 35 15 42 -4z"/> <path d="M2332 540 c0 -41 3 -63 5 -47 4 23 8 26 29 21 33 -8 54 12 54 51 0 40 -17 55 -58 52 l-32 -2 2 -75z m66 27 c2 -27 -1 -39 -13 -43 -35 -14 -61 46 -33 74 23 23 43 9 46 -31z"/> </g> </svg> 